<svg width="200" height="200" viewBox="0 0 200 200" fill="none" xmlns="http://www.w3.org/2000/svg">
<g clip-path="url(#clip0_7_8)">
<rect width="200" height="200" fill="black"/>
<g filter="url(#filter0_d_7_8)">
<path d="M98.5046 118.601V91.0342H168.903C168.903 92.2913 168.963 93.2791 169.083 93.9974V98.7565C169.083 121.444 163.156 138.984 151.303 151.376C139.331 163.887 122.48 170.143 100.749 170.143C90.3932 170.143 80.9349 168.556 72.3745 165.384C64.1134 162.211 56.6905 157.302 50.1056 150.657C43.82 144.252 39.001 136.829 35.6487 128.389C33.8528 123.899 32.5358 119.409 31.6978 114.919C30.8597 110.37 30.4406 105.85 30.4406 101.361C30.4406 91.6628 32.1168 82.6534 35.4691 74.3325C38.8214 66.251 43.82 58.8281 50.4647 52.0636C56.8102 45.7181 64.3529 40.8692 73.0928 37.5169C81.7131 34.2245 90.9319 32.5782 100.749 32.5782C113.56 32.5782 124.934 35.1523 134.871 40.3005C138.044 41.857 141.157 43.8025 144.21 46.1372C147.323 48.4119 150.166 50.9561 152.74 53.7697C155.374 56.5832 157.769 59.6362 159.924 62.9286L128.855 77.8345C125.143 72.7461 120.983 68.9449 116.374 66.4306C111.644 63.9762 106.436 62.7491 100.749 62.7491C89.9741 62.7491 81.5634 66.3109 75.5173 73.4346C69.4113 80.4984 66.3583 90.2859 66.3583 102.797C66.3583 115.368 69.4113 125.246 75.5173 132.429C81.5634 139.553 89.9741 143.115 100.749 143.115C109.908 143.115 117.481 140.84 123.467 136.29C129.693 131.801 133.255 125.904 134.153 118.601H98.5046Z" fill="white"/>
</g>
</g>
<defs>
<filter id="filter0_d_7_8" x="25.1864" y="32.5782" width="149.151" height="148.073" filterUnits="userSpaceOnUse" color-interpolation-filters="sRGB">
<feFlood flood-opacity="0" result="BackgroundImageFix"/>
<feColorMatrix in="SourceAlpha" type="matrix" values="0 0 0 0 0 0 0 0 0 0 0 0 0 0 0 0 0 0 127 0" result="hardAlpha"/>
<feOffset dy="5.25424"/>
<feGaussianBlur stdDeviation="2.62712"/>
<feComposite in2="hardAlpha" operator="out"/>
<feColorMatrix type="matrix" values="0 0 0 0 0 0 0 0 0 0 0 0 0 0 0 0 0 0 0.25 0"/>
<feBlend mode="normal" in2="BackgroundImageFix" result="effect1_dropShadow_7_8"/>
<feBlend mode="normal" in="SourceGraphic" in2="effect1_dropShadow_7_8" result="shape"/>
</filter>
<clipPath id="clip0_7_8">
<rect width="200" height="200" fill="white"/>
</clipPath>
</defs>
</svg>
